# File created by Blade
# Date/Time:  Tue Jan 27 17:08:52 2015
# Frame Rate: 120.000 fps
#------------------------------------------------------
:FULLY-SPECIFIED
:DEGREES
3779
root -1.128473 38.923644 -0.484405 41.258383 -21.266645 -47.124346
Spine -2.088918 14.293702 16.396059
Head -11.908459 2.904867 20.857038
LeftShoulder -6.235138 -5.779590 13.463635
LeftArm -22.649017 -46.519065 -29.000808
LeftForeArm 1.131769 0.000000 134.466547
LeftHand -23.647328 -0.000000 25.397359
LeftHandThumb1 -26.253704 0.000000 33.147579
RightShoulder -1.395269 -21.422018 2.505078
RightArm 29.669303 -25.230554 48.466830
RightForeArm 154.250742 -0.000000 71.854490
RightHand 2.187532 -0.000000 3.967801
RightHandThumb1 -24.326973 -0.000000 -32.862282
LeftUpLeg -24.742454 19.701210 36.010213
LeftLeg 20.454533 -0.000000 -0.000000
LeftFoot -20.443166 8.029799 -11.686864
LeftToeBase 13.282569 -0.000000 -0.000000
RightUpLeg -34.207289 -24.409473 -7.972679
RightLeg 69.390009 -0.000000 -0.000000
RightFoot 3.826275 -6.944926 13.195335
RightToeBase 3.458693 -0.000000 -0.000000
3780
root -1.148036 38.907712 -0.473842 41.178279 -21.391222 -46.923167
Spine -2.134186 14.322141 16.216076
Head -11.953192 2.930991 20.700447
LeftShoulder -6.288948 -5.682099 13.432866
LeftArm -22.469341 -46.416151 -29.075056
LeftForeArm 1.171267 -0.000000 134.235056
LeftHand -23.603015 -0.000000 25.522951
LeftHandThumb1 -26.253704 0.000000 33.147579
RightShoulder -1.413073 -21.448550 2.516619
RightArm 29.689154 -25.231901 48.441417
RightForeArm 154.321667 -0.000000 71.890619
RightHand 2.264401 -0.000000 4.021716
RightHandThumb1 -24.326973 -0.000000 -32.862282
LeftUpLeg -24.735768 19.486554 35.827405
LeftLeg 20.511900 -0.000000 -0.000000
LeftFoot -20.541328 8.299538 -11.640396
LeftToeBase 13.242107 -0.000000 -0.000000
RightUpLeg -34.055147 -24.367779 -7.661985
RightLeg 69.280543 -0.000000 -0.000000
RightFoot 3.892151 -6.974644 13.242901
RightToeBase 3.094689 -0.000000 -0.000000
3781
root -1.163749 38.890533 -0.461936 41.070631 -21.490083 -46.722745
Spine -2.132382 14.325311 16.090056
Head -12.024134 2.937009 20.519931
LeftShoulder -6.332571 -5.605569 13.394981
LeftArm -22.317479 -46.307362 -29.165795
LeftForeArm 1.255734 0.000000 134.028556
LeftHand -23.574387 -0.000000 25.680993
LeftHandThumb1 -26.253704 0.000000 33.147579
RightShoulder -1.384180 -21.450933 2.475832
RightArm 29.612168 -25.186461 48.524506
RightForeArm 154.359718 -0.000000 71.934120
RightHand 2.159572 -0.000000 3.966931
RightHandThumb1 -24.326973 -0.000000 -32.862282
LeftUpLeg -24.719339 19.260818 35.644467
LeftLeg 20.552158 -0.000000 -0.000000
LeftFoot -20.654142 8.575442 -11.568561
LeftToeBase 13.236238 -0.000000 -0.000000
RightUpLeg -33.867378 -24.367339 -7.344760
RightLeg 69.177140 -0.000000 -0.000000
RightFoot 3.911320 -6.990564 13.369188
RightToeBase 3.420794 -0.000000 -0.000000
3782
root -1.178633 38.873691 -0.453286 40.971073 -21.583965 -46.511738
Spine -2.128926 14.340829 15.944740
Head -12.149981 2.866323 20.441885
LeftShoulder -6.323357 -5.584129 13.340041
LeftArm -22.309640 -46.222433 -29.065596
LeftForeArm 1.196182 -0.000000 133.840123
LeftHand -23.540383 -0.000000 25.780175
LeftHandThumb1 -26.253704 0.000000 33.147579
RightShoulder -1.410480 -21.479427 2.479937
RightArm 29.599711 -25.122474 48.535790
RightForeArm 154.388024 -0.000000 71.983361
RightHand 2.183191 -0.000000 3.962756
RightHandThumb1 -24.326973 -0.000000 -32.862282
LeftUpLeg -24.735475 19.031394 35.449993
LeftLeg 20.604172 -0.000000 -0.000000
LeftFoot -20.693569 8.930090 -11.360044
LeftToeBase 13.064883 -0.000000 -0.000000
RightUpLeg -33.723416 -24.434818 -7.009208
RightLeg 69.115799 -0.000000 -0.000000
RightFoot 4.026596 -6.988851 13.596400
RightToeBase 3.228517 -0.000000 -0.000000
3783
root -1.192549 38.857876 -0.446215 40.876643 -21.669912 -46.309998
Spine -2.120612 14.338416 15.822018
Head -12.253419 2.766729 20.352593
LeftShoulder -6.351245 -5.502809 13.309999
LeftArm -22.230028 -46.152471 -29.102157
LeftForeArm 1.098981 -0.000000 133.658688
LeftHand -23.419359 -0.000000 25.876261
LeftHandThumb1 -26.253704 0.000000 33.147579
RightShoulder -1.422436 -21.533281 2.479944
RightArm 29.618216 -25.030666 48.533334
RightForeArm 154.430290 -0.000000 72.013824
RightHand 2.223654 0.000000 4.105769
RightHandThumb1 -24.326973 -0.000000 -32.862282
LeftUpLeg -24.760014 18.795045 35.272607
LeftLeg 20.682456 -0.000000 -0.000000
LeftFoot -20.759760 9.217445 -11.249997
LeftToeBase 12.944131 -0.000000 -0.000000
RightUpLeg -33.589498 -24.517957 -6.651923
RightLeg 69.067877 -0.000000 -0.000000
RightFoot 4.028369 -7.023240 14.095772
RightToeBase 3.598467 -0.000000 -0.000000
3784
root -1.205219 38.841859 -0.437221 40.788185 -21.770055 -46.102462
Spine -2.129305 14.341791 15.684008
Head -12.339436 2.745709 20.203668
LeftShoulder -6.356447 -5.447512 13.240705
LeftArm -22.241726 -46.077233 -28.988769
LeftForeArm 0.950124 -0.000000 133.498011
LeftHand -23.343094 -0.000000 25.884051
LeftHandThumb1 -26.253704 0.000000 33.147579
RightShoulder -1.422073 -21.588868 2.504188
RightArm 29.591022 -24.943731 48.536422
RightForeArm 154.447118 -0.000000 72.060792
RightHand 2.212160 0.000000 4.138967
RightHandThumb1 -24.326973 -0.000000 -32.862282
LeftUpLeg -24.776694 18.602472 35.070557
LeftLeg 20.736235 -0.000000 -0.000000
LeftFoot -20.855581 9.426518 -11.173781
LeftToeBase 12.957988 -0.000000 -0.000000
RightUpLeg -33.477462 -24.662258 -6.289823
RightLeg 69.054109 -0.000000 -0.000000
RightFoot 4.088348 -7.054956 14.490203
RightToeBase 3.778275 -0.000000 -0.000000
3785
root -1.219771 38.827292 -0.427141 40.710312 -21.865662 -45.909381
Spine -2.158052 14.375759 15.552971
Head -12.394384 2.526276 20.199461
LeftShoulder -6.366110 -5.343789 13.211126
LeftArm -22.168573 -45.976620 -29.025268
LeftForeArm 0.805570 -0.000000 133.352454
LeftHand -23.243834 -0.000000 25.944937
LeftHandThumb1 -26.253704 0.000000 33.147579
RightShoulder -1.467301 -21.579087 2.534387
RightArm 29.535116 -24.912004 48.566967
RightForeArm 154.466153 -0.000000 72.062033
RightHand 2.227787 -0.000000 4.273941
RightHandThumb1 -24.326973 -0.000000 -32.862282
LeftUpLeg -24.791601 18.471343 34.850595
LeftLeg 20.765820 -0.000000 -0.000000
LeftFoot -20.926538 9.686267 -11.011414
LeftToeBase 12.943181 -0.000000 -0.000000
RightUpLeg -33.377327 -24.833155 -5.911120
RightLeg 69.071166 -0.000000 -0.000000
RightFoot 4.173783 -7.069101 14.815955
RightToeBase 3.798289 -0.000000 -0.000000
3786
root -1.241969 38.815946 -0.412738 40.619689 -21.987012 -45.771688
Spine -2.142394 14.418870 15.456231
Head -12.425494 2.355620 20.142727
LeftShoulder -6.405517 -5.264355 13.117101
LeftArm -22.119786 -45.825772 -28.915550
LeftForeArm 0.655407 -0.000000 133.225035
LeftHand -23.132674 -0.000000 25.965897
LeftHandThumb1 -26.253704 0.000000 33.147579
RightShoulder -1.524438 -21.685096 2.612064
RightArm 29.600569 -24.814521 48.496028
RightForeArm 154.404559 -0.000000 72.069209
RightHand 2.335353 -0.000000 4.372818
RightHandThumb1 -24.326973 -0.000000 -32.862282
LeftUpLeg -24.709980 18.373998 34.697811
LeftLeg 20.760149 -0.000000 -0.000000
LeftFoot -20.990269 9.916282 -10.882606
LeftToeBase 12.959403 -0.000000 -0.000000
RightUpLeg -33.259502 -25.017381 -5.498481
RightLeg 69.112729 -0.000000 -0.000000
RightFoot 4.287834 -7.117308 15.109425
RightToeBase 3.790060 -0.000000 -0.000000
3787
root -1.251589 38.801209 -0.403458 40.536250 -22.085597 -45.552710
Spine -2.165314 14.415898 15.322050
Head -12.472104 2.152975 20.114107
LeftShoulder -6.442293 -5.172030 13.048641
LeftArm -22.015795 -45.691712 -28.953674
LeftForeArm 0.556806 -0.000000 133.111944
LeftHand -23.151972 -0.000000 26.109275
LeftHandThumb1 -26.253704 0.000000 33.147579
RightShoulder -1.540106 -21.720931 2.628247
RightArm 29.575660 -24.736851 48.528851
RightForeArm 154.363480 -0.000000 72.047829
RightHand 2.291569 -0.000000 4.420873
RightHandThumb1 -24.326973 -0.000000 -32.862282
LeftUpLeg -24.729854 18.186110 34.474397
LeftLeg 20.778425 -0.000000 -0.000000
LeftFoot -21.057032 10.151718 -10.802498
LeftToeBase 12.956217 -0.000000 -0.000000
RightUpLeg -33.218665 -25.362306 -5.111506
RightLeg 69.208462 -0.000000 -0.000000
RightFoot 4.425207 -7.169446 15.188753
RightToeBase 3.887142 -0.000000 -0.000000
3788
root -1.264800 38.788449 -0.392823 40.478987 -22.217455 -45.365903
Spine -2.216708 14.468742 15.169162
Head -12.483164 1.812220 20.158757
LeftShoulder -6.445268 -5.116120 12.960654
LeftArm -22.014149 -45.486263 -28.849444
LeftForeArm 0.544796 -0.000000 133.027169
LeftHand -23.122643 -0.000000 26.240331
LeftHandThumb1 -26.253704 0.000000 33.147579
RightShoulder -1.571550 -21.712168 2.670247
RightArm 29.481078 -24.691500 48.615822
RightForeArm 154.365066 -0.000000 72.021239
RightHand 2.340903 -0.000000 4.525725
RightHandThumb1 -24.326973 -0.000000 -32.862282
LeftUpLeg -24.721793 18.073605 34.261346
LeftLeg 20.791463 -0.000000 -0.000000
LeftFoot -21.087920 10.366075 -10.633024
LeftToeBase 12.888941 -0.000000 -0.000000
RightUpLeg -33.217102 -25.726253 -4.704915
RightLeg 69.338917 -0.000000 -0.000000
RightFoot 4.525716 -7.218158 15.321782
RightToeBase 3.990787 -0.000000 -0.000000
3789
root -1.280460 38.777587 -0.380065 40.400055 -22.389410 -45.177230
Spine -2.245817 14.553996 14.982761
Head -12.456021 1.481352 20.151421
LeftShoulder -6.459799 -5.048795 12.910580
LeftArm -21.902991 -45.268329 -28.898689
LeftForeArm 0.609261 -0.000000 132.921973
LeftHand -23.073362 0.000000 26.363913
LeftHandThumb1 -26.253704 0.000000 33.147579
RightShoulder -1.613109 -21.756983 2.763201
RightArm 29.431269 -24.597278 48.646966
RightForeArm 154.307584 0.000000 72.014475
RightHand 2.462663 -0.000000 4.587331
RightHandThumb1 -24.326973 -0.000000 -32.862282
LeftUpLeg -24.662181 18.003125 34.028439
LeftLeg 20.782596 -0.000000 -0.000000
LeftFoot -21.094478 10.549337 -10.445783
LeftToeBase 12.835652 -0.000000 -0.000000
RightUpLeg -33.217731 -26.164843 -4.313720
RightLeg 69.497217 -0.000000 -0.000000
RightFoot 4.615208 -7.297056 15.389057
RightToeBase 4.083743 -0.000000 -0.000000
3790
root -1.292096 38.765575 -0.366164 40.326764 -22.571141 -44.981432
Spine -2.290949 14.641269 14.786870
Head -12.407201 1.096355 20.211716
LeftShoulder -6.489944 -4.975602 12.849689
LeftArm -21.753931 -45.022677 -28.962603
LeftForeArm 0.620163 -0.000000 132.850001
LeftHand -23.125304 -0.000000 26.491137
LeftHandThumb1 -26.253704 0.000000 33.147579
RightShoulder -1.645373 -21.805032 2.825410
RightArm 29.383182 -24.514530 48.710508
RightForeArm 154.137214 0.000000 71.984672
RightHand 2.478985 -0.000000 4.547044
RightHandThumb1 -24.326973 -0.000000 -32.862282
LeftUpLeg -24.612944 17.954105 33.769586
LeftLeg 20.772118 -0.000000 -0.000000
LeftFoot -21.118738 10.696201 -10.338931
LeftToeBase 12.757198 -0.000000 -0.000000
RightUpLeg -33.251514 -26.665246 -3.928332
RightLeg 69.685499 -0.000000 -0.000000
RightFoot 4.662624 -7.407332 15.484546
RightToeBase 4.077052 -0.000000 -0.000000
3791
root -1.302037 38.754689 -0.354173 40.247984 -22.787389 -44.825770
Spine -2.279093 14.767199 14.617817
Head -12.358622 0.627506 20.265416
LeftShoulder -6.571214 -4.969243 12.847483
LeftArm -21.543773 -44.700689 -29.212844
LeftForeArm 0.722102 -0.000000 132.763500
LeftHand -23.054099 -0.000000 26.564738
LeftHandThumb1 -26.253704 0.000000 33.147579
RightShoulder -1.660444 -21.770215 2.872011
RightArm 29.286340 -24.478259 48.773064
RightForeArm 154.052064 -0.000000 71.932978
RightHand 2.425286 0.000000 4.603681
RightHandThumb1 -24.326973 -0.000000 -32.862282
LeftUpLeg -24.519202 17.948748 33.537114
LeftLeg 20.778708 -0.000000 -0.000000
LeftFoot -21.147457 10.813416 -10.232531
LeftToeBase 12.724941 -0.000000 -0.000000
RightUpLeg -33.293568 -27.201553 -3.526957
RightLeg 69.897857 -0.000000 -0.000000
RightFoot 4.678876 -7.570995 15.645739
RightToeBase 4.158829 -0.000000 -0.000000
